<?xml version="1.0" standalone="no"?>
<!DOCTYPE svg PUBLIC "-//W3C//DTD SVG 20010904//EN"
 "http://www.w3.org/TR/2001/REC-SVG-20010904/DTD/svg10.dtd">
<svg version="1.0" xmlns="http://www.w3.org/2000/svg"
 width="288.000000pt" height="262.000000pt" viewBox="0 0 288.000000 262.000000"
 preserveAspectRatio="xMidYMid meet">

<g transform="translate(0.000000,262.000000) scale(0.100000,-0.100000)"
fill="#000000" stroke="none">
<path d="M143 2534 c-24 -6 -54 -59 -46 -83 16 -45 32 -51 140 -51 126 0 166
-13 181 -62 10 -31 35 -144 67 -313 8 -38 35 -169 60 -290 25 -121 63 -308 85
-415 72 -354 78 -378 105 -428 31 -57 78 -98 144 -127 44 -19 71 -20 783 -23
406 -1 752 1 770 6 55 14 72 77 32 117 -14 13 -109 15 -748 15 -520 0 -743 3
-767 11 -47 16 -98 66 -109 109 -26 99 -41 173 -36 186 4 11 132 14 790 16
l784 3 59 40 c102 70 106 81 227 563 112 451 114 458 74 515 -43 60 20 57
-1127 57 l-1050 0 -33 50 c-21 32 -49 58 -82 76 -44 24 -61 27 -165 30 -64 1
-126 0 -138 -2z m2407 -293 c59 -5 74 -9 72 -21 -27 -124 -198 -782 -208 -801
-7 -15 -27 -38 -44 -53 l-32 -26 -783 0 c-431 0 -786 4 -789 8 -4 7 -55 246
-83 392 -3 14 -16 81 -30 150 -49 242 -54 265 -60 307 l-6 42 144 4 c275 5
1745 4 1819 -2z"/>
<path d="M910 644 c-108 -39 -174 -130 -173 -239 1 -97 40 -166 128 -224 35
-23 50 -26 125 -26 75 0 90 3 126 27 100 64 141 155 124 266 -14 82 -58 139
-149 191 -38 21 -129 24 -181 5z m147 -144 c42 -25 61 -82 43 -134 -17 -52
-52 -76 -112 -76 -41 0 -54 5 -78 29 -54 53 -52 113 6 168 42 39 91 44 141 13z"/>
<path d="M2113 646 c-87 -28 -164 -119 -179 -213 -16 -100 76 -246 171 -272
97 -27 187 -8 253 52 59 55 86 114 85 194 -1 106 -63 197 -160 233 -61 23
-110 24 -170 6z m151 -156 c40 -36 52 -76 36 -125 -32 -97 -170 -103 -219 -8
-15 30 -13 62 7 101 36 68 118 82 176 32z"/>
</g>
</svg>
