<?xml version="1.0" standalone="no"?>
<!DOCTYPE svg PUBLIC "-//W3C//DTD SVG 20010904//EN"
 "http://www.w3.org/TR/2001/REC-SVG-20010904/DTD/svg10.dtd">
<svg version="1.0" xmlns="http://www.w3.org/2000/svg"
 width="287.000000pt" height="266.000000pt" viewBox="0 0 287.000000 266.000000"
 preserveAspectRatio="xMidYMid meet">

<g transform="translate(0.000000,266.000000) scale(0.100000,-0.100000)"
fill="#000000" stroke="none">
<path d="M1088 2515 c-189 -32 -345 -113 -500 -260 -157 -150 -251 -341 -284
-577 -14 -103 -14 -125 0 -224 35 -246 106 -394 270 -562 119 -122 238 -197
392 -246 278 -88 601 -47 824 103 52 35 54 36 72 17 137 -145 591 -592 612
-603 20 -10 47 -14 83 -11 65 6 105 39 122 101 22 79 13 91 -323 427 l-308
306 40 66 c103 168 142 309 142 512 0 154 -28 288 -87 416 -60 132 -214 311
-333 388 -212 138 -466 190 -722 147z m342 -291 c110 -26 222 -88 304 -168
135 -133 197 -274 204 -466 3 -85 0 -132 -13 -180 -66 -261 -258 -453 -506
-505 -349 -74 -679 108 -794 437 -8 24 -22 83 -31 132 -16 95 -11 166 23 285
95 345 451 548 813 465z"/>
</g>
</svg>
